<svg width="305" height="306" viewBox="0 0 305 306" fill="none" xmlns="http://www.w3.org/2000/svg">
<path fill-rule="evenodd" clip-rule="evenodd" d="M153.184 152.821L300 6.99999L299.509 6.12878L152.5 152.141L5.49092 6.12879L5 7L151.816 152.821L4.50908 299.129L5 300L152.5 153.5L300 300L300.491 299.129L153.184 152.821Z" fill="black"/>
<path d="M300 6.99999L302.466 9.48327L304.358 7.60451L303.049 5.28181L300 6.99999ZM153.184 152.821L150.718 150.337L148.217 152.821L150.718 155.304L153.184 152.821ZM299.509 6.12878L302.558 4.4106L300.303 0.407558L297.043 3.64551L299.509 6.12878ZM152.5 152.141L150.034 154.624L152.5 157.074L154.966 154.624L152.5 152.141ZM5.49092 6.12879L7.95736 3.64552L4.69734 0.407597L2.44169 4.41059L5.49092 6.12879ZM5 7L1.95078 5.28179L0.641955 7.6045L2.53356 9.48328L5 7ZM151.816 152.821L154.282 155.304L156.783 152.821L154.282 150.337L151.816 152.821ZM4.50908 299.129L2.04264 296.646L0.151047 298.524L1.45985 300.847L4.50908 299.129ZM5 300L1.95077 301.718L4.20641 305.721L7.46644 302.483L5 300ZM152.5 153.5L154.966 151.017L152.5 148.567L150.034 151.017L152.5 153.5ZM300 300L297.534 302.483L300.793 305.721L303.049 301.718L300 300ZM300.491 299.129L303.54 300.847L304.849 298.524L302.957 296.646L300.491 299.129ZM297.534 4.51671L150.718 150.337L155.65 155.304L302.466 9.48327L297.534 4.51671ZM296.46 7.84696L296.951 8.71817L303.049 5.28181L302.558 4.4106L296.46 7.84696ZM154.966 154.624L301.976 8.61206L297.043 3.64551L150.034 149.658L154.966 154.624ZM3.02447 8.61207L150.034 154.624L154.966 149.658L7.95736 3.64552L3.02447 8.61207ZM8.04922 8.71821L8.54014 7.847L2.44169 4.41059L1.95078 5.28179L8.04922 8.71821ZM154.282 150.337L7.46644 4.51672L2.53356 9.48328L149.35 155.304L154.282 150.337ZM6.97553 301.612L154.282 155.304L149.35 150.337L2.04264 296.646L6.97553 301.612ZM8.04923 298.282L7.55831 297.411L1.45985 300.847L1.95077 301.718L8.04923 298.282ZM150.034 151.017L2.53356 297.517L7.46644 302.483L154.966 155.983L150.034 151.017ZM302.466 297.517L154.966 151.017L150.034 155.983L297.534 302.483L302.466 297.517ZM297.442 297.411L296.951 298.282L303.049 301.718L303.54 300.847L297.442 297.411ZM150.718 155.304L298.024 301.612L302.957 296.646L155.65 150.337L150.718 155.304Z" fill="black"/>
</svg>
