<svg width="400" height="400" viewBox="0 0 400 400" fill="none" xmlns="http://www.w3.org/2000/svg">
<rect width="400" height="400" fill="white"/>
<path fill-rule="evenodd" clip-rule="evenodd" d="M142.949 92.9551C179.173 59.6908 234.993 60.2852 270.5 94.2788V180H141.5V94.2853L142.949 92.9551ZM140.5 180V94.0656V93.8459L140.662 93.6973L142.272 92.2186C178.938 58.5491 235.466 59.2001 271.347 93.7052L271 94.0656H271.5V180H300.339C314.45 180 327.047 188.841 331.844 202.111L384.985 349.111C392.879 370.949 376.701 394 353.48 394H57.416C34.2244 394 18.0486 371.003 25.8877 349.176L78.6835 202.176C83.4616 188.873 96.0761 180 110.212 180H140.5ZM271.5 181H300.339C314.028 181 326.25 189.577 330.904 202.451L384.044 349.451C391.703 370.637 376.008 393 353.48 393H57.416C34.9167 393 19.2238 370.69 26.8289 349.514L79.6247 202.514C84.2601 189.608 96.4981 181 110.212 181H140.5V199C134.149 199 129 204.149 129 210.5C129 216.851 134.149 222 140.5 222C146.851 222 152 216.851 152 210.5C152 204.486 147.383 199.55 141.5 199.043V181H270.5V200C264.149 200 259 205.149 259 211.5C259 217.851 264.149 223 270.5 223C276.851 223 282 217.851 282 211.5C282 205.486 277.383 200.55 271.5 200.043V181Z" fill="black"/>
<path d="M270.5 94.2788H272V93.6383L271.537 93.1953L270.5 94.2788ZM142.949 92.9551L143.963 94.06L143.963 94.06L142.949 92.9551ZM270.5 180V181.5H272V180H270.5ZM141.5 180H140V181.5H141.5V180ZM141.5 94.2853L140.485 93.1805L140 93.6262V94.2853H141.5ZM140.5 180V181.5H142V180H140.5ZM140.5 93.8459L139.485 92.7411L139 93.1869V93.8459H140.5ZM140.662 93.6973L139.647 92.5925L139.647 92.5925L140.662 93.6973ZM142.272 92.2186L143.287 93.3234L143.287 93.3234L142.272 92.2186ZM271.347 93.7052L272.428 94.745L273.467 93.6638L272.386 92.6241L271.347 93.7052ZM271 94.0656L269.919 93.0259L267.476 95.5656H271V94.0656ZM271.5 94.0656H273V92.5656H271.5V94.0656ZM271.5 180H270V181.5H271.5V180ZM331.844 202.111L330.433 202.621L330.433 202.621L331.844 202.111ZM384.985 349.111L386.396 348.601L386.396 348.601L384.985 349.111ZM25.8877 349.176L24.476 348.669L24.476 348.669L25.8877 349.176ZM78.6835 202.176L77.2718 201.669L77.2718 201.669L78.6835 202.176ZM271.5 181V179.5H270V181H271.5ZM330.904 202.451L329.493 202.961L329.493 202.961L330.904 202.451ZM384.044 349.451L382.634 349.961L382.634 349.961L384.044 349.451ZM26.8289 349.514L25.4172 349.007L25.4172 349.007L26.8289 349.514ZM79.6247 202.514L81.0364 203.021L81.0364 203.021L79.6247 202.514ZM140.5 181H142V179.5H140.5V181ZM140.5 199V200.5H142V199H140.5ZM141.5 199.043H140V200.419L141.371 200.537L141.5 199.043ZM141.5 181V179.5H140V181H141.5ZM270.5 181H272V179.5H270.5V181ZM270.5 200V201.5H272V200H270.5ZM271.5 200.043H270V201.419L271.371 201.537L271.5 200.043ZM271.537 93.1953C235.459 58.6549 178.741 58.0509 141.934 91.8503L143.963 94.06C179.605 61.3308 234.526 61.9156 269.463 95.3623L271.537 93.1953ZM272 180V94.2788H269V180H272ZM141.5 181.5H270.5V178.5H141.5V181.5ZM140 94.2853V180H143V94.2853H140ZM141.934 91.8503L140.485 93.1805L142.515 95.3902L143.963 94.06L141.934 91.8503ZM142 180V94.0656H139V180H142ZM142 94.0656V93.8459H139V94.0656H142ZM141.515 94.9508L141.676 94.8022L139.647 92.5925L139.485 92.7411L141.515 94.9508ZM141.676 94.8022L143.287 93.3234L141.258 91.1137L139.647 92.5925L141.676 94.8022ZM143.287 93.3234C179.369 60.1898 234.997 60.8305 270.307 94.7864L272.386 92.6241C235.935 57.5698 178.507 56.9083 141.258 91.1137L143.287 93.3234ZM270.265 92.6655L269.919 93.0259L272.081 95.1054L272.428 94.745L270.265 92.6655ZM271 95.5656H271.5V92.5656H271V95.5656ZM270 94.0656V180H273V94.0656H270ZM271.5 181.5H300.339V178.5H271.5V181.5ZM300.339 181.5C313.818 181.5 325.851 189.945 330.433 202.621L333.255 201.601C328.243 187.737 315.081 178.5 300.339 178.5V181.5ZM330.433 202.621L383.574 349.621L386.396 348.601L333.255 201.601L330.433 202.621ZM383.574 349.621C391.115 370.481 375.662 392.5 353.48 392.5V395.5C377.741 395.5 394.644 371.417 386.396 348.601L383.574 349.621ZM353.48 392.5H57.416V395.5H353.48V392.5ZM57.416 392.5C35.2628 392.5 19.8113 370.533 27.2994 349.683L24.476 348.669C16.2859 371.473 33.1859 395.5 57.416 395.5V392.5ZM27.2994 349.683L80.0952 202.683L77.2718 201.669L24.476 348.669L27.2994 349.683ZM80.0952 202.683C84.6594 189.976 96.709 181.5 110.212 181.5V178.5C95.4432 178.5 82.2638 187.77 77.2718 201.669L80.0952 202.683ZM110.212 181.5H140.5V178.5H110.212V181.5ZM300.339 179.5H271.5V182.5H300.339V179.5ZM332.314 201.941C327.446 188.473 314.66 179.5 300.339 179.5V182.5C313.397 182.5 325.054 190.681 329.493 202.961L332.314 201.941ZM385.455 348.941L332.314 201.941L329.493 202.961L382.634 349.961L385.455 348.941ZM353.48 394.5C377.048 394.5 393.467 371.105 385.455 348.941L382.634 349.961C389.939 370.169 374.968 391.5 353.48 391.5V394.5ZM57.416 394.5H353.48V391.5H57.416V394.5ZM25.4172 349.007C17.4611 371.16 33.8782 394.5 57.416 394.5V391.5C35.9551 391.5 20.9865 370.219 28.2406 350.022L25.4172 349.007ZM78.213 202.007L25.4172 349.007L28.2406 350.022L81.0364 203.021L78.213 202.007ZM110.212 179.5C95.8651 179.5 83.0623 188.505 78.213 202.007L81.0364 203.021C85.4579 190.711 97.131 182.5 110.212 182.5V179.5ZM140.5 179.5H110.212V182.5H140.5V179.5ZM142 199V181H139V199H142ZM130.5 210.5C130.5 204.977 134.977 200.5 140.5 200.5V197.5C133.32 197.5 127.5 203.32 127.5 210.5H130.5ZM140.5 220.5C134.977 220.5 130.5 216.023 130.5 210.5H127.5C127.5 217.68 133.32 223.5 140.5 223.5V220.5ZM150.5 210.5C150.5 216.023 146.023 220.5 140.5 220.5V223.5C147.68 223.5 153.5 217.68 153.5 210.5H150.5ZM141.371 200.537C146.485 200.978 150.5 205.271 150.5 210.5H153.5C153.5 203.7 148.281 198.121 141.629 197.548L141.371 200.537ZM140 181V199.043H143V181H140ZM270.5 179.5H141.5V182.5H270.5V179.5ZM272 200V181H269V200H272ZM270.5 198.5C263.32 198.5 257.5 204.32 257.5 211.5H260.5C260.5 205.977 264.977 201.5 270.5 201.5V198.5ZM257.5 211.5C257.5 218.68 263.32 224.5 270.5 224.5V221.5C264.977 221.5 260.5 217.023 260.5 211.5H257.5ZM270.5 224.5C277.68 224.5 283.5 218.68 283.5 211.5H280.5C280.5 217.023 276.023 221.5 270.5 221.5V224.5ZM283.5 211.5C283.5 204.7 278.281 199.121 271.629 198.548L271.371 201.537C276.485 201.978 280.5 206.271 280.5 211.5H283.5ZM270 181V200.043H273V181H270Z" fill="black"/>
</svg>
