<svg width="253" height="85" viewBox="0 0 253 85" fill="none" xmlns="http://www.w3.org/2000/svg">
<path fill-rule="evenodd" clip-rule="evenodd" d="M0 84.5L102 0L159.075 84.5L88 84.5L100 71.5H112H120H134L100 18L19.185 84.5L0 84.5ZM190.512 19.025V16.97H182.367V19.025H185.157V27.5H187.722V19.025H190.512ZM194.365 21.155V19.025H198.25V16.97H191.8V27.5H198.25V25.445H194.365V23.135H197.8V21.155H194.365ZM202.54 25.64H206.47L207.1 27.5H209.815L206.005 16.97H203.035L199.225 27.5H201.91L202.54 25.64ZM204.505 19.805L205.81 23.66H203.215L204.505 19.805ZM222.899 27.5V16.97H219.884L216.959 24.26L214.004 16.97H210.974V27.5H213.539V21.17L215.909 27.5H217.979L220.334 21.185V27.5H222.899ZM159.62 48.64H163.55L164.18 50.5H166.895L163.085 39.97H160.115L156.305 50.5H158.99L159.62 48.64ZM161.585 42.805L162.89 46.66H160.295L161.585 42.805ZM179.98 50.5V39.97H176.965L174.04 47.26L171.085 39.97H168.055V50.5H170.62V44.17L172.99 50.5H175.06L177.415 44.185V50.5H179.98ZM184.074 49.915C184.904 50.375 185.814 50.605 186.804 50.605C187.794 50.605 188.699 50.375 189.519 49.915C190.339 49.455 190.989 48.815 191.469 47.995C191.949 47.165 192.189 46.235 192.189 45.205C192.189 44.175 191.949 43.25 191.469 42.43C190.999 41.61 190.349 40.97 189.519 40.51C188.699 40.05 187.794 39.82 186.804 39.82C185.814 39.82 184.904 40.05 184.074 40.51C183.254 40.97 182.599 41.61 182.109 42.43C181.629 43.25 181.389 44.175 181.389 45.205C181.389 46.235 181.629 47.165 182.109 47.995C182.599 48.815 183.254 49.455 184.074 49.915ZM188.814 47.425C188.314 47.985 187.644 48.265 186.804 48.265C185.954 48.265 185.274 47.99 184.764 47.44C184.264 46.88 184.014 46.135 184.014 45.205C184.014 44.265 184.264 43.52 184.764 42.97C185.274 42.42 185.954 42.145 186.804 42.145C187.644 42.145 188.314 42.425 188.814 42.985C189.324 43.535 189.579 44.275 189.579 45.205C189.579 46.125 189.324 46.865 188.814 47.425ZM196.796 46.525L198.986 50.5H201.881L199.451 46.33C200.221 46.1 200.801 45.71 201.191 45.16C201.591 44.61 201.791 43.985 201.791 43.285C201.791 42.665 201.646 42.105 201.356 41.605C201.066 41.095 200.626 40.695 200.036 40.405C199.456 40.115 198.751 39.97 197.921 39.97H193.616V50.5H196.181V46.525H196.796ZM197.771 44.71H196.181V42.1H197.771C198.241 42.1 198.591 42.215 198.821 42.445C199.061 42.675 199.181 42.99 199.181 43.39C199.181 43.81 199.061 44.135 198.821 44.365C198.591 44.595 198.241 44.71 197.771 44.71ZM205.966 44.155V42.025H209.851V39.97H203.401V50.5H209.851V48.445H205.966V46.135H209.401V44.155H205.966ZM219.361 46.015C218.991 45.535 218.501 45.23 217.891 45.1C218.431 44.94 218.861 44.655 219.181 44.245C219.511 43.835 219.676 43.32 219.676 42.7C219.676 41.86 219.371 41.195 218.761 40.705C218.161 40.215 217.326 39.97 216.256 39.97H211.516V50.5H216.421C217.521 50.5 218.376 50.245 218.986 49.735C219.606 49.215 219.916 48.515 219.916 47.635C219.916 47.025 219.731 46.485 219.361 46.015ZM215.761 44.23H214.081V42.025H215.761C216.181 42.025 216.501 42.12 216.721 42.31C216.951 42.5 217.066 42.775 217.066 43.135C217.066 43.495 216.951 43.77 216.721 43.96C216.501 44.14 216.181 44.23 215.761 44.23ZM216.961 48.145C216.731 48.335 216.401 48.43 215.971 48.43H214.081V46.105H215.941C216.371 46.105 216.706 46.21 216.946 46.42C217.196 46.63 217.321 46.92 217.321 47.29C217.321 47.66 217.201 47.945 216.961 48.145ZM223.969 50.5V39.97H221.404V50.5H223.969ZM228.393 44.155V42.025H232.278V39.97H225.828V50.5H232.278V48.445H228.393V46.135H231.828V44.155H228.393ZM241.518 42.025V39.97H233.373V42.025H236.163V50.5H238.728V42.025H241.518ZM245.43 48.64H249.36L249.99 50.5H252.705L248.895 39.97H245.925L242.115 50.5H244.8L245.43 48.64ZM247.395 42.805L248.7 46.66H246.105L247.395 42.805Z" fill="#3D3C8C"/>
</svg>
