<svg width="172" height="145" viewBox="0 0 172 145" fill="none" xmlns="http://www.w3.org/2000/svg">
<mask id="path-1-inside-1_16_219" fill="red">
<path fill-rule="evenodd" clip-rule="evenodd" d="M84.1505 144.575L27.0948 85.6796L27.1901 85.5873L11.908 69.7614C-3.43762 53.8698 -2.99497 28.547 12.8966 13.2015L14.3353 11.8122C30.2269 -3.53337 55.5497 -3.09072 70.8952 12.8009L86.0852 28.5313L101.791 13.3161C117.658 -2.0552 142.981 -1.65352 158.352 14.2132L159.744 15.6497C175.115 31.5164 174.714 56.8399 158.847 72.2111L143.046 87.5187L143.138 87.614L84.2319 144.496L84.1505 144.575Z"/>
</mask>
<path d="M84.1505 144.575L81.2776 147.358L84.0563 150.226L86.9291 147.452L84.1505 144.575ZM27.0948 85.6796L24.3116 82.8067L21.4386 85.5899L24.2219 88.4628L27.0948 85.6796ZM27.1901 85.5873L29.9733 88.4602L32.8416 85.6815L30.0675 82.8087L27.1901 85.5873ZM11.908 69.7614L14.7854 66.9828L11.908 69.7614ZM12.8966 13.2015L10.1181 10.324L12.8966 13.2015ZM14.3353 11.8122L17.1139 14.6896L14.3353 11.8122ZM70.8952 12.8009L68.0178 15.5794L68.0178 15.5794L70.8952 12.8009ZM86.0852 28.5313L83.2078 31.3099L85.9908 34.192L88.8684 31.4043L86.0852 28.5313ZM158.847 72.2111L156.064 69.3382L158.847 72.2111ZM143.046 87.5187L140.263 84.6458L137.394 87.4245L140.168 90.2973L143.046 87.5187ZM143.138 87.614L145.916 90.4915L148.794 87.7129L146.015 84.8355L143.138 87.614ZM84.2319 144.496L81.4534 141.619L84.2319 144.496ZM87.0235 141.791L29.9677 82.8964L24.2219 88.4628L81.2776 147.358L87.0235 141.791ZM29.878 88.5525L29.9733 88.4602L24.4069 82.7144L24.3116 82.8067L29.878 88.5525ZM30.0675 82.8087L14.7854 66.9828L9.03052 72.5399L24.3127 88.3658L30.0675 82.8087ZM14.7854 66.9828C0.974371 52.6804 1.37275 29.8899 15.6752 16.0789L10.1181 10.324C-7.36269 27.2042 -7.8496 55.0592 9.03052 72.5399L14.7854 66.9828ZM15.6752 16.0789L17.1139 14.6896L11.5568 8.93477L10.1181 10.324L15.6752 16.0789ZM17.1139 14.6896C31.4163 0.878617 54.2068 1.277 68.0178 15.5794L73.7727 10.0223C56.8926 -7.45845 29.0375 -7.94535 11.5568 8.93477L17.1139 14.6896ZM68.0178 15.5794L83.2078 31.3099L88.9626 25.7528L73.7727 10.0223L68.0178 15.5794ZM88.8684 31.4043L104.574 16.189L99.0077 10.4431L83.302 25.6584L88.8684 31.4043ZM104.574 16.189C118.854 2.35486 141.645 2.71636 155.479 16.9964L161.225 11.43C144.317 -6.02341 116.461 -6.46525 99.0077 10.4431L104.574 16.189ZM155.479 16.9964L156.871 18.4329L162.617 12.8665L161.225 11.43L155.479 16.9964ZM156.871 18.4329C170.705 32.713 170.344 55.5041 156.064 69.3382L161.63 75.084C179.083 58.1757 179.525 30.3199 162.617 12.8665L156.871 18.4329ZM156.064 69.3382L140.263 84.6458L145.829 90.3916L161.63 75.084L156.064 69.3382ZM140.168 90.2973L140.26 90.3926L146.015 84.8355L145.923 84.7401L140.168 90.2973ZM140.359 84.7366L81.4534 141.619L87.0105 147.373L145.916 90.4915L140.359 84.7366ZM81.4534 141.619L81.372 141.697L86.9291 147.452L87.0105 147.373L81.4534 141.619Z" fill="#FF0000" mask="url(#path-1-inside-1_16_219)"/>
</svg>
